<mxfile host="app.diagrams.net" agent="Mozilla/5.0 (Windows NT 10.0; Win64; x64) AppleWebKit/537.36 (KHTML, like Gecko) Chrome/128.0.0.0 Safari/537.36" version="24.7.12">
  <diagram name="1 oldal" id="oIaOXSq8m4r5HV4kPMUL">
    <mxGraphModel dx="1749" dy="1436" grid="1" gridSize="10" guides="1" tooltips="1" connect="1" arrows="1" fold="1" page="0" pageScale="1" pageWidth="827" pageHeight="1169" math="0" shadow="0">
      <root>
        <mxCell id="0" />
        <mxCell id="1" parent="0" />
        <mxCell id="LqGFdfltih2ktR7MJivO-3" value="" style="edgeStyle=none;curved=1;rounded=0;orthogonalLoop=1;jettySize=auto;html=1;fontSize=12;startSize=8;endSize=8;" parent="1" source="LqGFdfltih2ktR7MJivO-1" target="LqGFdfltih2ktR7MJivO-2" edge="1">
          <mxGeometry relative="1" as="geometry" />
        </mxCell>
        <mxCell id="LqGFdfltih2ktR7MJivO-1" value="start" style="ellipse;whiteSpace=wrap;html=1;" parent="1" vertex="1">
          <mxGeometry x="30" y="-130" width="120" height="80" as="geometry" />
        </mxCell>
        <mxCell id="LqGFdfltih2ktR7MJivO-8" value="" style="edgeStyle=none;curved=1;rounded=0;orthogonalLoop=1;jettySize=auto;html=1;fontSize=12;startSize=8;endSize=8;" parent="1" source="LqGFdfltih2ktR7MJivO-2" target="LqGFdfltih2ktR7MJivO-7" edge="1">
          <mxGeometry relative="1" as="geometry" />
        </mxCell>
        <mxCell id="LqGFdfltih2ktR7MJivO-2" value="Be: t[], n" style="shape=parallelogram;perimeter=parallelogramPerimeter;whiteSpace=wrap;html=1;fixedSize=1;" parent="1" vertex="1">
          <mxGeometry x="30" width="120" height="60" as="geometry" />
        </mxCell>
        <mxCell id="LqGFdfltih2ktR7MJivO-10" value="" style="edgeStyle=none;curved=1;rounded=0;orthogonalLoop=1;jettySize=auto;html=1;fontSize=12;startSize=8;endSize=8;" parent="1" source="LqGFdfltih2ktR7MJivO-7" target="LqGFdfltih2ktR7MJivO-9" edge="1">
          <mxGeometry relative="1" as="geometry" />
        </mxCell>
        <mxCell id="LqGFdfltih2ktR7MJivO-7" value="i = 0 ,g[], n2" style="whiteSpace=wrap;html=1;" parent="1" vertex="1">
          <mxGeometry x="30" y="90" width="120" height="60" as="geometry" />
        </mxCell>
        <mxCell id="LqGFdfltih2ktR7MJivO-18" value="" style="edgeStyle=none;curved=1;rounded=0;orthogonalLoop=1;jettySize=auto;html=1;fontSize=12;startSize=8;endSize=8;" parent="1" source="LqGFdfltih2ktR7MJivO-9" target="LqGFdfltih2ktR7MJivO-17" edge="1">
          <mxGeometry relative="1" as="geometry" />
        </mxCell>
        <mxCell id="sfty-tyA9VQYTNiCTBVV-6" value="" style="edgeStyle=none;curved=1;rounded=0;orthogonalLoop=1;jettySize=auto;html=1;fontSize=12;startSize=8;endSize=8;" edge="1" parent="1" source="LqGFdfltih2ktR7MJivO-9" target="sfty-tyA9VQYTNiCTBVV-5">
          <mxGeometry relative="1" as="geometry" />
        </mxCell>
        <mxCell id="LqGFdfltih2ktR7MJivO-9" value="i &amp;lt; n" style="rhombus;whiteSpace=wrap;html=1;" parent="1" vertex="1">
          <mxGeometry x="50" y="190" width="80" height="80" as="geometry" />
        </mxCell>
        <mxCell id="LqGFdfltih2ktR7MJivO-20" value="" style="edgeStyle=none;curved=1;rounded=0;orthogonalLoop=1;jettySize=auto;html=1;fontSize=12;startSize=8;endSize=8;" parent="1" source="LqGFdfltih2ktR7MJivO-17" target="LqGFdfltih2ktR7MJivO-19" edge="1">
          <mxGeometry relative="1" as="geometry" />
        </mxCell>
        <mxCell id="LqGFdfltih2ktR7MJivO-17" value="ki: g[]" style="shape=parallelogram;perimeter=parallelogramPerimeter;whiteSpace=wrap;html=1;fixedSize=1;" parent="1" vertex="1">
          <mxGeometry x="230" y="200" width="120" height="60" as="geometry" />
        </mxCell>
        <mxCell id="LqGFdfltih2ktR7MJivO-19" value="stop" style="ellipse;whiteSpace=wrap;html=1;" parent="1" vertex="1">
          <mxGeometry x="400" y="200" width="100" height="60" as="geometry" />
        </mxCell>
        <mxCell id="LqGFdfltih2ktR7MJivO-21" value="I" style="text;html=1;align=center;verticalAlign=middle;whiteSpace=wrap;rounded=0;fontSize=16;" parent="1" vertex="1">
          <mxGeometry x="20" y="180" width="60" height="30" as="geometry" />
        </mxCell>
        <mxCell id="LqGFdfltih2ktR7MJivO-22" value="H" style="text;html=1;align=center;verticalAlign=middle;whiteSpace=wrap;rounded=0;fontSize=16;" parent="1" vertex="1">
          <mxGeometry x="100" y="180" width="60" height="30" as="geometry" />
        </mxCell>
        <mxCell id="sfty-tyA9VQYTNiCTBVV-8" value="" style="edgeStyle=none;curved=1;rounded=0;orthogonalLoop=1;jettySize=auto;html=1;fontSize=12;startSize=8;endSize=8;" edge="1" parent="1" source="sfty-tyA9VQYTNiCTBVV-5" target="sfty-tyA9VQYTNiCTBVV-7">
          <mxGeometry relative="1" as="geometry" />
        </mxCell>
        <mxCell id="sfty-tyA9VQYTNiCTBVV-5" value="j = 0" style="whiteSpace=wrap;html=1;" vertex="1" parent="1">
          <mxGeometry x="-130" y="200" width="120" height="60" as="geometry" />
        </mxCell>
        <mxCell id="sfty-tyA9VQYTNiCTBVV-10" value="" style="edgeStyle=none;curved=1;rounded=0;orthogonalLoop=1;jettySize=auto;html=1;fontSize=12;startSize=8;endSize=8;" edge="1" parent="1" source="sfty-tyA9VQYTNiCTBVV-7" target="sfty-tyA9VQYTNiCTBVV-9">
          <mxGeometry relative="1" as="geometry" />
        </mxCell>
        <mxCell id="sfty-tyA9VQYTNiCTBVV-18" value="" style="edgeStyle=none;curved=1;rounded=0;orthogonalLoop=1;jettySize=auto;html=1;fontSize=12;startSize=8;endSize=8;" edge="1" parent="1" source="sfty-tyA9VQYTNiCTBVV-7" target="sfty-tyA9VQYTNiCTBVV-17">
          <mxGeometry relative="1" as="geometry" />
        </mxCell>
        <mxCell id="sfty-tyA9VQYTNiCTBVV-7" value="j &amp;lt; n2" style="rhombus;whiteSpace=wrap;html=1;" vertex="1" parent="1">
          <mxGeometry x="-260" y="190" width="80" height="80" as="geometry" />
        </mxCell>
        <mxCell id="sfty-tyA9VQYTNiCTBVV-9" value="g.push(t[i])" style="whiteSpace=wrap;html=1;" vertex="1" parent="1">
          <mxGeometry x="-280" y="320" width="120" height="60" as="geometry" />
        </mxCell>
        <mxCell id="sfty-tyA9VQYTNiCTBVV-11" value="" style="endArrow=none;html=1;rounded=0;fontSize=12;startSize=8;endSize=8;curved=1;" edge="1" parent="1" target="sfty-tyA9VQYTNiCTBVV-9">
          <mxGeometry width="50" height="50" relative="1" as="geometry">
            <mxPoint x="90" y="350" as="sourcePoint" />
            <mxPoint x="70" y="200" as="targetPoint" />
          </mxGeometry>
        </mxCell>
        <mxCell id="sfty-tyA9VQYTNiCTBVV-12" value="" style="endArrow=classic;html=1;rounded=0;fontSize=12;startSize=8;endSize=8;curved=1;" edge="1" parent="1" target="LqGFdfltih2ktR7MJivO-9">
          <mxGeometry width="50" height="50" relative="1" as="geometry">
            <mxPoint x="90" y="350" as="sourcePoint" />
            <mxPoint x="70" y="200" as="targetPoint" />
          </mxGeometry>
        </mxCell>
        <mxCell id="sfty-tyA9VQYTNiCTBVV-17" value="t[i] == g[j]" style="rhombus;whiteSpace=wrap;html=1;" vertex="1" parent="1">
          <mxGeometry x="-260" y="60" width="80" height="80" as="geometry" />
        </mxCell>
        <mxCell id="sfty-tyA9VQYTNiCTBVV-19" value="j++" style="rounded=0;whiteSpace=wrap;html=1;" vertex="1" parent="1">
          <mxGeometry x="-380" y="140" width="120" height="60" as="geometry" />
        </mxCell>
        <mxCell id="sfty-tyA9VQYTNiCTBVV-20" value="" style="endArrow=none;html=1;rounded=0;fontSize=12;startSize=8;endSize=8;curved=1;entryX=0;entryY=0.5;entryDx=0;entryDy=0;" edge="1" parent="1" target="sfty-tyA9VQYTNiCTBVV-17">
          <mxGeometry width="50" height="50" relative="1" as="geometry">
            <mxPoint x="-320" y="100" as="sourcePoint" />
            <mxPoint x="-170" y="210" as="targetPoint" />
          </mxGeometry>
        </mxCell>
        <mxCell id="sfty-tyA9VQYTNiCTBVV-21" value="" style="endArrow=classic;html=1;rounded=0;fontSize=12;startSize=8;endSize=8;curved=1;" edge="1" parent="1" target="sfty-tyA9VQYTNiCTBVV-19">
          <mxGeometry width="50" height="50" relative="1" as="geometry">
            <mxPoint x="-320" y="100" as="sourcePoint" />
            <mxPoint x="-350" y="230" as="targetPoint" />
          </mxGeometry>
        </mxCell>
        <mxCell id="sfty-tyA9VQYTNiCTBVV-22" value="" style="endArrow=classic;html=1;rounded=0;fontSize=12;startSize=8;endSize=8;curved=1;" edge="1" parent="1" target="sfty-tyA9VQYTNiCTBVV-7">
          <mxGeometry width="50" height="50" relative="1" as="geometry">
            <mxPoint x="-320" y="230" as="sourcePoint" />
            <mxPoint x="-310" y="220" as="targetPoint" />
          </mxGeometry>
        </mxCell>
        <mxCell id="sfty-tyA9VQYTNiCTBVV-23" value="" style="endArrow=none;html=1;rounded=0;fontSize=12;startSize=8;endSize=8;curved=1;" edge="1" parent="1" target="sfty-tyA9VQYTNiCTBVV-19">
          <mxGeometry width="50" height="50" relative="1" as="geometry">
            <mxPoint x="-320" y="230" as="sourcePoint" />
            <mxPoint x="-170" y="210" as="targetPoint" />
          </mxGeometry>
        </mxCell>
        <mxCell id="sfty-tyA9VQYTNiCTBVV-27" value="" style="endArrow=none;html=1;rounded=0;fontSize=12;startSize=8;endSize=8;curved=1;endFill=0;" edge="1" parent="1" source="sfty-tyA9VQYTNiCTBVV-17">
          <mxGeometry width="50" height="50" relative="1" as="geometry">
            <mxPoint x="-220" y="260" as="sourcePoint" />
            <mxPoint x="-40" y="100" as="targetPoint" />
          </mxGeometry>
        </mxCell>
        <mxCell id="sfty-tyA9VQYTNiCTBVV-29" value="" style="endArrow=none;html=1;rounded=0;fontSize=12;startSize=8;endSize=8;curved=1;" edge="1" parent="1">
          <mxGeometry width="50" height="50" relative="1" as="geometry">
            <mxPoint x="-40" as="sourcePoint" />
            <mxPoint x="-40" y="100" as="targetPoint" />
          </mxGeometry>
        </mxCell>
        <mxCell id="sfty-tyA9VQYTNiCTBVV-30" value="" style="endArrow=none;html=1;rounded=0;fontSize=12;startSize=8;endSize=8;curved=1;" edge="1" parent="1">
          <mxGeometry width="50" height="50" relative="1" as="geometry">
            <mxPoint x="-40" as="sourcePoint" />
            <mxPoint x="-430" as="targetPoint" />
          </mxGeometry>
        </mxCell>
        <mxCell id="sfty-tyA9VQYTNiCTBVV-31" value="" style="endArrow=none;html=1;rounded=0;fontSize=12;startSize=8;endSize=8;curved=1;" edge="1" parent="1">
          <mxGeometry width="50" height="50" relative="1" as="geometry">
            <mxPoint x="-430" y="460" as="sourcePoint" />
            <mxPoint x="-430" as="targetPoint" />
          </mxGeometry>
        </mxCell>
        <mxCell id="sfty-tyA9VQYTNiCTBVV-32" value="" style="endArrow=none;html=1;rounded=0;fontSize=12;startSize=8;endSize=8;curved=1;" edge="1" parent="1">
          <mxGeometry width="50" height="50" relative="1" as="geometry">
            <mxPoint x="90" y="350" as="sourcePoint" />
            <mxPoint x="90" y="460" as="targetPoint" />
          </mxGeometry>
        </mxCell>
        <mxCell id="sfty-tyA9VQYTNiCTBVV-33" value="" style="endArrow=none;html=1;rounded=0;fontSize=12;startSize=8;endSize=8;curved=1;" edge="1" parent="1">
          <mxGeometry width="50" height="50" relative="1" as="geometry">
            <mxPoint x="-430" y="460" as="sourcePoint" />
            <mxPoint x="90" y="460" as="targetPoint" />
          </mxGeometry>
        </mxCell>
        <mxCell id="sfty-tyA9VQYTNiCTBVV-34" value="I" style="text;html=1;align=center;verticalAlign=middle;whiteSpace=wrap;rounded=0;fontSize=16;" vertex="1" parent="1">
          <mxGeometry x="-220" y="170" width="60" height="30" as="geometry" />
        </mxCell>
        <mxCell id="sfty-tyA9VQYTNiCTBVV-35" value="H" style="text;html=1;align=center;verticalAlign=middle;whiteSpace=wrap;rounded=0;fontSize=16;" vertex="1" parent="1">
          <mxGeometry x="-210" y="260" width="60" height="30" as="geometry" />
        </mxCell>
        <mxCell id="sfty-tyA9VQYTNiCTBVV-36" value="I" style="text;html=1;align=center;verticalAlign=middle;whiteSpace=wrap;rounded=0;fontSize=16;" vertex="1" parent="1">
          <mxGeometry x="-200" y="60" width="60" height="30" as="geometry" />
        </mxCell>
        <mxCell id="sfty-tyA9VQYTNiCTBVV-37" value="H" style="text;html=1;align=center;verticalAlign=middle;whiteSpace=wrap;rounded=0;fontSize=16;" vertex="1" parent="1">
          <mxGeometry x="-290" y="60" width="60" height="30" as="geometry" />
        </mxCell>
      </root>
    </mxGraphModel>
  </diagram>
</mxfile>
